# xmcd
#
# Track frame offsets: 
#        150
#        15537
#        35632
#        45647
#        57380
#        78142
#        91375
#        107185
#        119962
#        137350
#        158715
#        172202
#
# Disc length: 2596 seconds
#
# Revision: 7
# Processed by: cddbd v1.5.2PL0 Copyright (c) Steve Scherf et al.
# Submitted via: ExactAudioCopy v1.3
#
DISCID=9f0a220c
DTITLE=Joe Cocker - Joe Cocker!
DYEAR=1969
DGENRE=Rock
TTITLE0=Dear Landlord
TTITLE1=Bird on a Wire
TTITLE2=Lawdy Miss Clawdy
TTITLE3=She Came In Through the Bathroom Window
TTITLE4=Hitchcock Railway
TTITLE5=That's Your Business
TTITLE6=Something
TTITLE7=Delta Lady
TTITLE8=Hello, Little Friend
TTITLE9=Darling Be Home Soon
TTITLE10=She's Good to Me
TTITLE11=Let It Be
EXTD=The classic 1969 album, newly digitally re-mastered from the orig
EXTD=inal master tapes, plus 2 "bonus-tracks". YEAR: 1999
EXTT0=
EXTT1=
EXTT2=
EXTT3=
EXTT4=
EXTT5=
EXTT6=
EXTT7=
EXTT8=
EXTT9=
EXTT10=
EXTT11=
PLAYORDER=
